<svg
  xmlns="http://www.w3.org/2000/svg"
  xmlns:xlink="http://www.w3.org/1999/xlink"
  width="333" height="304" font-family="Arial, Helvetica, sans-serif">
<path stroke="black" stroke-dasharray="5,5,5" d="M253,123 L192,72" />
<g transform="rotate(219 192 72)"><path stroke="black" fill="#ffffff" d="M192,72 l-8,-4 l 0,8 Z" /></g>

<path stroke="black" stroke-dasharray="5,5,5" d="M111,102 L138,72" />
<g transform="rotate(-48 138 72)"><path stroke="black" fill="#ffffff" d="M138,72 l-8,-4 l 0,8 Z" /></g>

<rect stroke="#d3d3d3" fill="#ffffff" x="100" y="20" width="124" height="52"/>
<line stroke="#d3d3d3" x1="100" y1="50" x2="224" y2="50"/><text font-family="Arial,Helvetica,sans-serif" font-size="12px" x="106" y="66">Log()</text>
<text font-family="Arial,Helvetica,sans-serif" font-size="12px" x="106" y="40">fox.Logger interface</text>
<rect stroke="#d3d3d3" fill="#ffffff" x="24" y="102" width="115" height="68"/>
<line stroke="#d3d3d3" x1="24" y1="132" x2="139" y2="132"/><text font-family="Arial,Helvetica,sans-serif" font-size="12px" x="30" y="148">FilterEmpty()</text>
<text font-family="Arial,Helvetica,sans-serif" font-size="12px" x="30" y="164">SetOutput()</text>
<text font-family="Arial,Helvetica,sans-serif" font-size="12px" x="30" y="122">fox.SyncLog struct</text>
<rect stroke="#d3d3d3" fill="#ffffff" x="205" y="123" width="128" height="26"/>
<text font-family="Arial,Helvetica,sans-serif" font-size="12px" x="211" y="143">fox.FilterEmpty struct</text>
<rect stroke="#d3d3d3" fill="#ffffff" x="24" y="200" width="111" height="52"/>
<line stroke="#d3d3d3" x1="24" y1="230" x2="135" y2="230"/><text font-family="Arial,Helvetica,sans-serif" font-size="12px" x="30" y="246">Write()</text>
<text font-family="Arial,Helvetica,sans-serif" font-size="12px" x="30" y="220">io.Writer interface</text>
<path stroke="black" d="M79,170 L79,200" />

<text font-family="Arial,Helvetica,sans-serif" font-size="12px" x="11" y="298">1. Design of fox package and it&#39;s relation to io.Writer</text></svg>