<svg
  xmlns="http://www.w3.org/2000/svg"
  xmlns:xlink="http://www.w3.org/1999/xlink"
  font-family="Arial,Helvetica,sans-serif" width="333" height="262">
<path stroke="black" stroke-dasharray="5,5,5" d="M248,102 L202,72" />
<g transform="rotate(213 202 72)"><path stroke="black" fill="#ffffff" d="M202,72 l-8,-4 l 0,8 Z" /></g>

<path stroke="black" stroke-dasharray="5,5,5" d="M96,102 L131,72" />
<g transform="rotate(-40 131 72)"><path stroke="black" fill="#ffffff" d="M131,72 l-8,-4 l 0,8 Z" /></g>

<rect stroke="#d3d3d3" fill="#ffffff" x="100" y="20" width="124" height="52"/>
<line stroke="#d3d3d3" x1="100" y1="50" x2="224" y2="50"/><text font-family="Arial,Helvetica,sans-serif" font-size="12px" x="106" y="66">Log()</text>
<text font-family="Arial,Helvetica,sans-serif" font-size="12px" x="106" y="40">fox.Logger interface</text>
<rect stroke="#d3d3d3" fill="#ffffff" x="24" y="102" width="115" height="26"/>
<text font-family="Arial,Helvetica,sans-serif" font-size="12px" x="30" y="122">fox.SyncLog struct</text>
<rect stroke="#d3d3d3" fill="#ffffff" x="205" y="102" width="128" height="26"/>
<text font-family="Arial,Helvetica,sans-serif" font-size="12px" x="211" y="122">fox.FilterEmpty struct</text>
<rect stroke="#d3d3d3" fill="#ffffff" x="24" y="158" width="111" height="52"/>
<line stroke="#d3d3d3" x1="24" y1="188" x2="135" y2="188"/><text font-family="Arial,Helvetica,sans-serif" font-size="12px" x="30" y="204">Write()</text>
<text font-family="Arial,Helvetica,sans-serif" font-size="12px" x="30" y="178">io.Writer interface</text>
<path stroke="black" d="M80,128 L79,158" />

<text font-family="Arial,Helvetica,sans-serif" font-size="12px" x="11" y="256">1. Design of fox package and it&#39;s relation to io.Writer</text></svg>